<mxfile host="65bd71144e">
    <diagram id="EzmD75K9y8w7fqWna-ng" name="第 1 页">
        <mxGraphModel dx="1202" dy="926" grid="1" gridSize="10" guides="1" tooltips="1" connect="1" arrows="1" fold="1" page="1" pageScale="1" pageWidth="827" pageHeight="1169" math="0" shadow="0">
            <root>
                <mxCell id="0"/>
                <mxCell id="1" parent="0"/>
                <mxCell id="4" value="注意事项" style="text;strokeColor=none;align=center;fillColor=#fad9d5;html=1;verticalAlign=middle;whiteSpace=wrap;rounded=0;shadow=0;dashed=1;dashPattern=1 1;sketch=1;curveFitting=1;jiggle=2;" vertex="1" parent="1">
                    <mxGeometry x="30" y="490" width="70" height="50" as="geometry"/>
                </mxCell>
                <mxCell id="6" value="&lt;font color=&quot;#ffffff&quot;&gt;&lt;span style=&quot;text-align: left; font-family: Menlo, Monaco, &amp;quot;Courier New&amp;quot;, monospace; font-size: 16px;&quot;&gt;需要注意的是如果要通过transform实现垂直居中的话，top: 50%时父元素一定要有高度才行&lt;br&gt;&lt;br&gt;&lt;/span&gt;&lt;/font&gt;&lt;div style=&quot;text-align: left; font-family: Menlo, Monaco, &amp;quot;Courier New&amp;quot;, monospace; font-size: 16px; line-height: 24px;&quot;&gt;&lt;div style=&quot;&quot;&gt;&lt;font color=&quot;#ffffff&quot;&gt;1. 如果给外层父元素设置了line-height。内部后代元素中将a元素转换成块级元素，由于a元素中存在内容，那么此时由于继承了line-height，相当于a元素内容也就有的line-height&lt;/font&gt;&lt;/div&gt;&lt;div style=&quot;&quot;&gt;&lt;font color=&quot;#ffffff&quot;&gt;- 在单行文情况下此时a元素高度将=line-height高度，那么如果此时外层父级元素高度与line-height相同，a中文本展示相当于也是垂直居中了。&lt;/font&gt;&lt;/div&gt;&lt;font color=&quot;#ffffff&quot;&gt;&lt;br&gt;&lt;/font&gt;&lt;div style=&quot;&quot;&gt;&lt;font color=&quot;#ffffff&quot;&gt;- 在多行文本的情况下展示的就会有问题了，此时a元素高度相当于父元素高度*行数：&lt;/font&gt;&lt;/div&gt;&lt;div style=&quot;&quot;&gt;&lt;font color=&quot;#ffffff&quot;&gt;这种情况下最好就不要给外层父元素设置行高了，或者是在后代元素中重新设置行高而不是使用继承来的行高&lt;/font&gt;&lt;/div&gt;&lt;font color=&quot;#ffffff&quot;&gt;&lt;br&gt;&lt;/font&gt;&lt;div style=&quot;&quot;&gt;&lt;font color=&quot;#ffffff&quot;&gt;2. 如果图片本身不是圆形的，那么如果让图片展示出圆形效果呢？给图片外层的父元素设置border和border-radius吗？？&lt;/font&gt;&lt;/div&gt;&lt;div style=&quot;&quot;&gt;&lt;font color=&quot;#ffffff&quot;&gt;- 其实不用那么麻烦，img是也可以设置border和border-radius的，直接给img设置border和border-radius就可以轻松实现图形图片的效果～&lt;/font&gt;&lt;/div&gt;&lt;/div&gt;" style="whiteSpace=wrap;html=1;" vertex="1" parent="1">
                    <mxGeometry x="80" y="580" width="700" height="430" as="geometry"/>
                </mxCell>
            </root>
        </mxGraphModel>
    </diagram>
</mxfile>